#!OML:ASF I:\Actors\actors\Patient Classification 2\Patient 1\Session 1\actor1.ASF
:FULLY-SPECIFIED
:DEGREES
1146
root -1.01293 18.3034 6.37491 8.55202 -0.92003 -3.68248
lowerback 20.521 0.476018 4.57795
upperback -4.43137 2.01812 0.860073
thorax -16.6749 0.498435 -2.30454
lowerneck -10.4129 8.47413 6.11823
upperneck -23.3598 9.44137 -11.3847
head -4.4627 4.76313 -4.61805
rclavicle 2.44754e-015 7.15625e-015
rhumerus -49.7868 -5.1048 -82.5048
rradius 50.7331
rwrist 4.57678
rhand -8.29496 -30.9449
rfingers 7.12502
rthumb 17.625 -420.166
lclavicle 2.44754e-015 7.15625e-015
lhumerus -48.6006 -1.40689 91.0925
lradius 47.0145
lwrist -6.98678
lhand -8.69394 -23.7512
lfingers 7.12502
lthumb 17.241 5.504
rfemur 1.98964 -5.26101 19.6891
rtibia 3.18055e-015
rfoot -16.0934 -6.8005
rtoes 9.26951
lfemur 9.58662 -6.62291 -12.8054
ltibia -17.7976
lfoot -3.35907 19.7351
ltoes -11.5279
1147
root -1.0123 18.3037 6.37699 8.51505 -0.891307 -3.68694
lowerback 20.3273 0.498168 4.41985
upperback -4.29918 1.99305 0.89391
thorax -16.3994 0.515628 -2.16111
lowerneck -10.5232 9.39218 6.6642
upperneck -22.9653 10.6067 -11.9017
head -4.15806 5.31849 -4.80442
rclavicle -1.86361e-014 -4.47266e-015
rhumerus -49.5866 -4.86748 -82.661
rradius 50.6156
rwrist 4.20695
rhand -8.05097 -30.3464
rfingers 7.12502
rthumb 17.8598 -419.546
lclavicle -1.86361e-014 -4.47266e-015
lhumerus -48.012 -1.51081 91.2099
lradius 46.5754
lwrist -6.44452
lhand -9.22842 -25.1145
lfingers 7.12502
lthumb 16.7266 4.18495
rfemur 2.03347 -5.28828 19.6914
rtibia 0
rfoot -16.0411 -6.85078
rtoes 8.88421
lfemur 9.62687 -6.78399 -12.8083
ltibia -17.811
lfoot -3.38108 19.8547
ltoes -11.4107
1148
root -1.01235 18.3054 6.37886 8.50022 -0.817613 -3.71255
lowerback 19.8683 0.501594 4.12185
upperback -4.02542 1.90367 1.0439
thorax -15.802 0.535135 -1.77681
lowerneck -10.2763 10.2262 7.2074
upperneck -22.8731 11.6565 -12.4952
head -3.99469 5.83259 -5.0379
rclavicle -7.20594e-016 -1.17283e-014
rhumerus -49.0031 -4.63361 -82.5916
rradius 50.281
rwrist 4.49824
rhand -7.46434 -30.331
rfingers 7.12502
rthumb 18.4242 -419.479
lclavicle -7.20594e-016 -1.17283e-014
lhumerus -47.3085 -1.45727 91.3849
lradius 46.5614
lwrist -6.63526
lhand -9.12266 -25.0325
lfingers 7.12502
lthumb 16.8284 4.25824
rfemur 2.06364 -5.35708 19.7266
rtibia -4.77083e-015
rfoot -16.0273 -6.90718
rtoes 8.72363
lfemur 9.6253 -6.96081 -12.7721
ltibia -17.7942
lfoot -3.43766 19.9587
ltoes -11.0972
1149
root -1.01324 18.3094 6.3826 8.55274 -0.75668 -3.71189
lowerback 19.6051 0.522456 4.05993
upperback -4.00369 1.89649 1.02003
thorax -15.6157 0.541618 -1.76085
lowerneck -9.86964 10.7965 7.84021
upperneck -22.4855 12.4033 -12.8576
head -3.79585 6.18244 -5.21282
rclavicle 1.42628e-014 1.98785e-015
rhumerus -48.9273 -4.62264 -82.6267
rradius 49.9658
rwrist 4.56508
rhand -7.6453 -29.9734
rfingers 7.12502
rthumb 18.2501 -419.137
lclavicle 1.42628e-014 1.98785e-015
lhumerus -47.2102 -1.83706 91.6071
lradius 46.9767
lwrist -6.77961
lhand -8.85602 -23.6719
lfingers 7.12502
lthumb 17.085 5.59685
rfemur 2.02458 -5.41711 19.7339
rtibia -1.43125e-014
rfoot -16.0195 -6.91304
rtoes 8.88616
lfemur 9.55082 -7.14481 -12.7649
ltibia -17.7438
lfoot -3.49067 20.1378
ltoes -11.1251
1150
root -1.01466 18.314 6.3895 8.6577 -0.752041 -3.66045
lowerback 19.1881 0.579331 3.89491
upperback -3.95936 1.90413 1.00376
thorax -15.3105 0.568137 -1.67874
lowerneck -9.57162 11.1446 8.25171
upperneck -21.907 12.9114 -12.8604
head -3.58761 6.41066 -5.2373
rclavicle 5.18083e-015 9.93923e-015
rhumerus -48.8387 -4.57843 -82.6488
rradius 49.7191
rwrist 4.56357
rhand -7.9194 -29.8022
rfingers 7.12502
rthumb 17.9864 -418.991
lclavicle 5.18083e-015 9.93923e-015
lhumerus -47.0897 -2.19224 91.8814
lradius 47.2356
lwrist -6.59408
lhand -8.9047 -23.0797
lfingers 7.12502
lthumb 17.0382 6.19311
rfemur 1.92486 -5.42924 19.6836
rtibia -9.54166e-015
rfoot -15.9866 -6.93673
rtoes 8.7742
lfemur 9.42652 -7.36707 -12.8272
ltibia -17.6713
lfoot -3.56223 20.4141
ltoes -11.348
1151
root -1.01644 18.3183 6.3981 8.77753 -0.742299 -3.57254
lowerback 18.6792 0.643405 3.66031
upperback -3.91004 1.90399 1.00504
thorax -14.9472 0.599502 -1.53251
lowerneck -9.45815 11.2017 8.33332
upperneck -20.9806 13.1064 -12.3405
head -3.34537 6.47791 -5.04291
rclavicle -1.16413e-014 6.95746e-016
rhumerus -48.8091 -4.56342 -82.6237
rradius 49.6167
rwrist 4.55229
rhand -8.03568 -30.0593
rfingers 7.12502
rthumb 17.8745 -419.258
lclavicle -1.16413e-014 6.95746e-016
lhumerus -46.9495 -2.48153 92.1478
lradius 47.2995
lwrist -6.5009
lhand -8.85882 -23.3168
lfingers 7.12502
lthumb 17.0823 5.95216
rfemur 1.81205 -5.45187 19.5928
rtibia 1.43125e-014
rfoot -15.9694 -6.95044
rtoes 8.65918
lfemur 9.27448 -7.56988 -12.9285
ltibia -17.5885
lfoot -3.62053 20.6405
ltoes -11.4189
1152
root -1.01804 18.3216 6.4066 8.90436 -0.683719 -3.52995
lowerback 18.105 0.691399 3.46368
upperback -3.8761 1.8978 1.04863
thorax -14.5649 0.626662 -1.3569
lowerneck -9.30524 10.9139 8.1758
upperneck -19.8076 12.8995 -11.4211
head -3.12228 6.3471 -4.70661
rclavicle 8.24956e-015 -1.18277e-014
rhumerus -48.8447 -4.49706 -82.5726
rradius 49.594
rwrist 4.54154
rhand -8.08795 -30.2365
rfingers 7.12502
rthumb 17.8242 -419.44
lclavicle 8.24956e-015 -1.18277e-014
lhumerus -46.8931 -2.77725 92.475
lradius 47.3333
lwrist -6.40654
lhand -8.60583 -23.6856
lfingers 7.12502
lthumb 17.3258 5.56212
rfemur 1.69885 -5.51614 19.5556
rtibia -6.36111e-015
rfoot -15.9611 -6.92284
rtoes 8.76314
lfemur 9.09446 -7.83098 -12.9656
ltibia -17.4957
lfoot -3.68024 20.8546
ltoes -11.4376
1153
root -1.02006 18.3251 6.41569 9.06757 -0.608131 -3.53756
lowerback 17.4309 0.744643 3.28138
upperback -3.85602 1.90605 1.13357
thorax -14.1401 0.6614 -1.14572
lowerneck -9.12295 10.258 7.78662
upperneck -18.4463 12.2412 -10.1721
head -2.9216 5.99735 -4.254
rclavicle 1.41634e-015 -1.88845e-015
rhumerus -48.8917 -4.30804 -82.5009
rradius 49.5719
rwrist 4.61361
rhand -8.06611 -30.1609
rfingers 7.12502
rthumb 17.8452 -419.362
lclavicle 1.41634e-015 -1.88845e-015
lhumerus -46.8984 -3.13113 92.9029
lradius 47.3466
lwrist -6.20673
lhand -8.58274 -23.9873
lfingers 7.12502
lthumb 17.3481 5.25849
rfemur 1.54927 -5.59031 19.5851
rtibia -1.11319e-014
rfoot -15.9729 -6.91306
rtoes 8.79607
lfemur 8.87477 -8.09923 -12.9365
ltibia -17.3972
lfoot -3.79537 21.0642
ltoes -11.543
1154
root -1.0235 18.3291 6.42388 9.25938 -0.53244 -3.52892
lowerback 16.7376 0.804183 3.05053
upperback -3.84283 1.91428 1.22181
thorax -13.7145 0.699047 -0.90391
lowerneck -9.37348 9.17303 7.06051
upperneck -16.3292 11.0849 -8.24752
head -2.84558 5.3741 -3.84532
rclavicle -2.09469e-014 -1.45113e-014
rhumerus -48.9112 -4.10024 -82.4154
rradius 49.513
rwrist 4.75526
rhand -8.01097 -29.8522
rfingers 7.12502
rthumb 17.8983 -419.049
lclavicle -2.09469e-014 -1.45113e-014
lhumerus -46.8508 -3.52552 93.3621
lradius 47.2669
lwrist -5.99306
lhand -8.77514 -24.3801
lfingers 7.12502
lthumb 17.1629 4.88186
rfemur 1.3679 -5.66756 19.6071
rtibia 7.95139e-015
rfoot -16.0014 -6.91396
rtoes 8.7732
lfemur 8.62626 -8.30202 -12.9117
ltibia -17.3125
lfoot -3.94083 21.2329
ltoes -11.4523
1155
root -1.02804 18.3317 6.42946 9.38657 -0.41679 -3.4879
lowerback 16.1332 0.840526 2.77151
upperback -3.80731 1.88756 1.31284
thorax -13.3204 0.722465 -0.624897
lowerneck -9.86694 7.64057 5.79484
upperneck -14.2632 9.3171 -6.01882
head -2.35305 4.50453 -2.81636
rclavicle -9.6659e-015 3.57812e-015
rhumerus -48.8819 -3.89573 -82.353
rradius 49.4311
rwrist 4.85695
rhand -7.99624 -29.5704
rfingers 7.12502
rthumb 17.9125 -418.766
lclavicle -9.6659e-015 3.57812e-015
lhumerus -46.7179 -3.87018 93.7896
lradius 47.0757
lwrist -5.94045
lhand -8.90169 -24.8584
lfingers 7.12502
lthumb 17.0411 4.41416
rfemur 1.26661 -5.78869 19.5965
rtibia -1.59028e-015
rfoot -16.0338 -6.87592
rtoes 8.75367
lfemur 8.43952 -8.45638 -12.9156
ltibia -17.2533
lfoot -4.03311 21.3185
ltoes -11.108
1156
root -1.03259 18.3324 6.43169 9.41095 -0.266937 -3.46272
lowerback 16.06 0.875786 2.79488
upperback -4.05354 1.93554 1.23277
thorax -13.5579 0.733366 -0.73998
lowerneck -10.3411 5.60002 3.90803
upperneck -11.7424 6.95844 -3.02032
head -1.7397 3.36638 -1.48343
rclavicle -3.23522e-014 -1.41137e-014
rhumerus -49.4001 -3.94728 -82.3958
rradius 49.3889
rwrist 4.95994
rhand -7.99289 -29.5307
rfingers 7.12502
rthumb 17.9157 -418.725
lclavicle -3.23522e-014 -1.41137e-014
lhumerus -47.0973 -4.52851 94.1694
lradius 46.8557
lwrist -6.01125
lhand -9.06928 -25.1714
lfingers 7.12502
lthumb 16.8798 4.11501
rfemur 1.27411 -5.94023 19.5974
rtibia -7.95139e-015
rfoot -16.033 -6.81701
rtoes 8.87632
lfemur 8.36203 -8.59141 -12.9082
ltibia -17.2195
lfoot -4.08251 21.3406
ltoes -10.7167
1157
root -1.03657 18.3328 6.43179 9.38698 -0.127583 -3.4793
lowerback 15.7532 0.883535 2.63559
upperback -4.07506 1.91095 1.31231
thorax -13.4058 0.742327 -0.54859
lowerneck -10.8898 3.28607 1.38766
upperneck -9.12648 4.26162 0.226164
head -1.02394 2.09358 -0.0613706
rclavicle -2.17421e-014 -1.80894e-014
rhumerus -49.4132 -3.67391 -82.4489
rradius 49.0984
rwrist 5.41726
rhand -8.41847 -29.2516
rfingers 7.12502
rthumb 17.5062 -418.483
lclavicle -2.17421e-014 -1.80894e-014
lhumerus -46.9746 -4.8325 94.5696
lradius 46.4817
lwrist -6.16093
lhand -9.22594 -25.3008
lfingers 7.12502
lthumb 16.7289 3.99841
rfemur 1.31258 -6.07467 19.6352
rtibia -1.74931e-014
rfoot -16.0045 -6.76436
rtoes 9.33735
lfemur 8.35602 -8.74015 -12.8662
ltibia -17.2195
lfoot -4.06622 21.3597
ltoes -10.7464
1158
root -1.03972 18.333 6.43147 9.33116 0.0166978 -3.50709
lowerback 15.136 0.861884 2.2613
upperback -3.83743 1.80016 1.52643
thorax -12.7791 0.742411 -0.0586425
lowerneck -10.6598 0.669184 -1.13293
upperneck -7.2821 1.10795 3.0227
head -0.523607 0.593703 1.15183
rclavicle 6.03808e-015 -2.98177e-015
rhumerus -48.872 -3.15317 -82.4905
rradius 48.5238
rwrist 6.32947
rhand -9.40229 -28.4642
rfingers 7.12502
rthumb 16.5592 -417.778
lclavicle 6.03808e-015 -2.98177e-015
lhumerus -46.2608 -4.71025 94.9048
lradius 45.9282
lwrist -6.45145
lhand -9.25196 -25.4274
lfingers 7.12502
lthumb 16.7039 3.87398
rfemur 1.3798 -6.21212 19.6826
rtibia 1.59028e-015
rfoot -15.9841 -6.74764
rtoes 9.44884
lfemur 8.4047 -8.84499 -12.821
ltibia -17.2613
lfoot -3.95682 21.335
ltoes -11.3103
1159
root -1.04298 18.3323 6.42941 9.22463 0.191328 -3.51986
lowerback 15.0387 0.858758 2.20397
upperback -3.92203 1.78147 1.50671
thorax -12.8191 0.736591 -0.041741
lowerneck -10.1226 -2.22474 -3.81868
upperneck -5.07218 -2.49709 5.77262
head 0.257949 -1.13158 2.40933
rclavicle 2.15433e-014 4.96962e-015
rhumerus -48.9181 -3.0998 -82.5553
rradius 48.0221
rwrist 7.04957
rhand -9.87622 -28.253
rfingers 7.12502
rthumb 16.1028 -417.604
lclavicle 2.15433e-014 4.96962e-015
lhumerus -46.0902 -4.78814 95.0815
lradius 45.3638
lwrist -6.84665
lhand -9.18748 -25.5712
lfingers 7.12502
lthumb 16.766 3.72484
rfemur 1.51077 -6.3816 19.7146
rtibia -4.77083e-015
rfoot -15.9367 -6.77095
rtoes 8.88265
lfemur 8.50844 -8.89789 -12.7883
ltibia -17.3311
lfoot -3.83113 21.2516
ltoes -11.7397
1160
root -1.04703 18.3317 6.4257 9.11705 0.375835 -3.53059
lowerback 15.1017 0.855668 2.25397
upperback -4.09093 1.78371 1.41301
thorax -13.0473 0.725468 -0.175615
lowerneck -9.13778 -5.22824 -6.56401
upperneck -2.95251 -6.37617 8.15544
head 1.18437 -3.01491 3.56221
rclavicle -1.04362e-015 2.5842e-015
rhumerus -49.0619 -3.26999 -82.5893
rradius 47.5849
rwrist 7.4373
rhand -9.45757 -28.9949
rfingers 7.12502
rthumb 16.5059 -418.313
lclavicle -1.04362e-015 2.5842e-015
lhumerus -46.103 -4.78442 95.1344
lradius 44.9135
lwrist -7.26172
lhand -8.92016 -25.3506
lfingers 7.12502
lthumb 17.0233 3.92349
rfemur 1.64716 -6.56136 19.7485
rtibia -1.59028e-014
rfoot -15.9106 -6.77115
rtoes 8.64625
lfemur 8.60412 -8.93444 -12.7497
ltibia -17.396
lfoot -3.71011 21.1258
ltoes -11.9067
